<svg xmlns="http://www.w3.org/2000/svg" width="716" height="232" viewBox="0 0 716 232">
  <path d="M260.001 144.076c0 37.462-30.167 67.937-67.663 67.937-15.103 0-29.193-5.005-40.491-13.359C164.479 183.964 172 164.915 172 144.076l.028-108.105c0-17.628-14.355-31.971-32-31.971s-32 14.342-32 31.971L108 144.076c0 20.84 8.027 39.888 20.659 54.578-11.298 8.354-25.387 13.359-40.491 13.359-37.496 0-68.168-30.476-68.168-67.937V12.197H4v131.878c0 46.274 38.019 83.923 84.337 83.923 19.637 0 37.85-6.818 52.169-18.141 14.319 11.323 32.11 18.141 51.748 18.141 46.318 0 83.748-37.649 83.748-83.923V12.197h-16v131.879zM140 187.763c-9.967-11.822-16-27.057-16-43.688l.028-108.105c0-8.816 7.178-15.985 16-15.985s16 7.169 16 15.985L156 144.076c0 16.63-6.033 31.865-16 43.687zM324.027 11.764h16v212h-16zm156.078-3.696c-31.573 0-59.482 15.961-76.079 40.229V11.764h-16v212h16V100.075h.009c0-41.902 34.125-75.992 76.07-75.992V8.068zm185.102 38.064c-1.733-2.004-3.547-3.961-5.45-5.864-42.889-42.889-112.675-42.889-155.564 0-42.889 42.889-42.889 112.674 0 155.563 42.883 42.883 112.654 42.889 155.545.018l-11.314-11.314c-34.746 34.727-90.13 36.522-127.017 5.396l66.206-66.206 77.594-77.593zM510.093 178.618c-31.132-36.893-29.331-92.291 5.414-127.036 34.745-34.745 90.143-36.546 127.036-5.414l-132.45 132.45zM680 13.585h5.598V28h1.705V13.585h5.622V12H680m29.742 0l-5.574 13.886L698.619 12H696v16h1.633V13.706L703.351 28h1.561l5.694-14.246V28h1.658V12"/>
</svg>
