<svg xmlns="http://www.w3.org/2000/svg" xmlns:xlink="http://www.w3.org/1999/xlink" xmlns:lucid="lucid" width="1100" height="866"><g transform="translate(-60 -20)" lucid:page-tab-id="0_0"><path d="M570 207v608.5" stroke="#a3d977" stroke-width="9" fill="none"/><path d="M574.5 207.12h-9v-4.62h9z" fill="#a3d977"/><path d="M570 815.38V820" stroke="#a3d977" stroke-width="9" fill="none"/><path d="M96 120c-8.84 0-16 7.16-16 16v48c0 8.84 7.16 16 16 16h128c8.84 0 16-7.16 16-16v-48c0-8.84-7.16-16-16-16z" stroke="#99d2f2" stroke-width="5" fill="#fff"/><use xlink:href="#a" transform="matrix(1,0,0,1,88,128) translate(22.1 35.6)"/><use xlink:href="#b" transform="matrix(1,0,0,1,88,128) translate(65.9 35.6)"/><path d="M456 120c-8.84 0-16 7.16-16 16v48c0 8.84 7.16 16 16 16h228c8.84 0 16-7.16 16-16v-48c0-8.84-7.16-16-16-16z" stroke="#a3d977" stroke-width="5" fill="#fff"/><use xlink:href="#c" transform="matrix(1,0,0,1,448,128) translate(82.57499999999999 24.799999999999997)"/><use xlink:href="#d" transform="matrix(1,0,0,1,448,128) translate(121.475 24.799999999999997)"/><use xlink:href="#e" transform="matrix(1,0,0,1,448,128) translate(7.724999999999994 46.4)"/><use xlink:href="#f" transform="matrix(1,0,0,1,448,128) translate(82.47500000000001 46.4)"/><use xlink:href="#g" transform="matrix(1,0,0,1,448,128) translate(161.425 46.4)"/><path d="M916 120c-8.84 0-16 7.16-16 16v48c0 8.84 7.16 16 16 16h128c8.84 0 16-7.16 16-16v-48c0-8.84-7.16-16-16-16z" stroke="#ffdf71" stroke-width="5" fill="#fff"/><use xlink:href="#h" transform="matrix(1,0,0,1,908,128) translate(1.1499999999999915 24.799999999999997)"/><use xlink:href="#i" transform="matrix(1,0,0,1,908,128) translate(69.95 24.799999999999997)"/><use xlink:href="#j" transform="matrix(1,0,0,1,908,128) translate(52.075 46.4)"/><path d="M544 284l-364.5-1.9" stroke="#000" stroke-width="2" fill="none"/><path d="M545.1 283l-.1.98.05 1.02h-1.08v-2z"/><path d="M164.24 282.02l14.3-4.56-.06 9.27z" stroke="#000" stroke-width="2"/><path d="M137.76 355H562.5c0-4.14 3.36-7.5 7.5-7.5 4.14 0 7.5 3.36 7.5 7.5h384" stroke="#000" stroke-width="2" fill="none"/><path d="M137.8 356h-1.36l.65-2h.7z"/><path d="M976.76 355l-14.26 4.64v-9.28z" stroke="#000" stroke-width="2"/><path d="M594 284c0 13.25-10.75 24-24 24s-24-10.75-24-24 10.75-24 24-24 24 10.75 24 24z" stroke="#a3d977" stroke-width="2" fill="#fff"/><use xlink:href="#k" transform="matrix(1,0,0,1,551,265) translate(13 21.525)"/><path d="M980 207v628.5" stroke="#ffdf71" stroke-width="9" fill="none"/><path d="M984.5 207.12h-9v-4.62h9z" fill="#ffdf71"/><path d="M980 835.38V840" stroke="#ffdf71" stroke-width="9" fill="none"/><path d="M160 207v140.5c-4.14 0-7.5 3.36-7.5 7.5 0 4.14 3.36 7.5 7.5 7.5v473" stroke="#99d2f2" stroke-width="9" fill="none"/><path d="M164.5 207.12h-9v-4.62h9z" fill="#99d2f2"/><path d="M160 835.38V840" stroke="#99d2f2" stroke-width="9" fill="none"/><path d="M184 364c0 13.25-10.75 24-24 24s-24-10.75-24-24 10.75-24 24-24 24 10.75 24 24z" stroke="#a3d977" stroke-width="2" fill="#fff"/><use xlink:href="#l" transform="matrix(1,0,0,1,141,345) translate(13 21.525)"/><path d="M978.5 420.57H580v99.37h359.38" fill="none"/><path d="M978.5 420.57h-15.04m-15.04 0h-30.08m-15.04 0h-30.08m-15.04 0H828.1m-15.03 0H783m-15.05 0h-30.08m-15.04 0h-30.08m-15.04 0h-30.07m-15.04 0h-30.1m-15.03 0H580v22.6m0 15.05v30.07m0 15.03v16.6h13.47m15.04 0h30.1m15.03 0h30.08m15.05 0h30.08m15.04 0h30.08m15.03 0h30.08m15.04 0h30.08m15.04 0h30.08m15.04 0h15.04M978.46 420.57H980" stroke="#999" stroke-width="3" fill="none"/><path d="M955.15 519.94l-14.27 4.64v-9.27z" stroke="#999" stroke-width="3" fill="#999"/><path d="M999 604h-11.5c0-4.13-3.36-7.5-7.5-7.48-4.15 0-7.5 3.36-7.5 7.5l-395 .36c0-4.14-3.36-7.5-7.5-7.5-4.15.02-7.5 3.38-7.5 7.52l-384 .35" stroke="#000" stroke-width="2" fill="none"/><path d="M1000 605h-1.02v-2h1.02z"/><path d="M163.24 604.76l14.26-4.65v9.28z" stroke="#000" stroke-width="2"/><path d="M1004 424c0 13.25-10.75 24-24 24s-24-10.75-24-24 10.75-24 24-24 24 10.75 24 24z" stroke="#a3d977" stroke-width="2" fill="#fff"/><use xlink:href="#m" transform="matrix(1,0,0,1,961,405) translate(12.524999999999999 21.525)"/><path d="M1004 604c0 13.25-10.75 24-24 24s-24-10.75-24-24 10.75-24 24-24 24 10.75 24 24z" stroke="#a3d977" stroke-width="2" fill="#fff"/><use xlink:href="#n" transform="matrix(1,0,0,1,961,585) translate(12.524999999999999 21.525)"/><path d="M161 714.36l390.5 1.53M161.03 714.36H160" stroke="#000" stroke-width="2" fill="none"/><path d="M566.76 715.95l-14.28 4.58.04-9.27z" stroke="#000" stroke-width="2"/><path d="M184 724c0 13.25-10.75 24-24 24s-24-10.75-24-24 10.75-24 24-24 24 10.75 24 24z" stroke="#a3d977" stroke-width="2" fill="#fff"/><use xlink:href="#o" transform="matrix(1,0,0,1,141,705) translate(13 21.525)"/><path d="M220 260h280v20H220z" stroke="#000" stroke-opacity="0" stroke-width="2" fill="#fff" fill-opacity="0"/><use xlink:href="#p" transform="matrix(1,0,0,1,225,265) translate(2.7250000000000227 14.4)"/><use xlink:href="#q" transform="matrix(1,0,0,1,225,265) translate(45.62500000000003 14.4)"/><use xlink:href="#r" transform="matrix(1,0,0,1,225,265) translate(94.57500000000003 14.4)"/><use xlink:href="#s" transform="matrix(1,0,0,1,225,265) translate(211.47500000000002 14.4)"/><use xlink:href="#t" transform="matrix(1,0,0,1,225,265) translate(230.425 14.4)"/><path d="M200 320h300v48H200z" stroke="#000" stroke-opacity="0" stroke-width="2" fill="#fff" fill-opacity="0"/><use xlink:href="#u" transform="matrix(1,0,0,1,205,325) translate(5.175000000000011 21.525)"/><use xlink:href="#v" transform="matrix(1,0,0,1,205,325) translate(56.67500000000001 21.525)"/><use xlink:href="#w" transform="matrix(1,0,0,1,205,325) translate(110.275 21.525)"/><use xlink:href="#x" transform="matrix(1,0,0,1,205,325) translate(130.275 21.525)"/><use xlink:href="#y" transform="matrix(1,0,0,1,205,325) translate(161.925 21.525)"/><use xlink:href="#z" transform="matrix(1,0,0,1,205,325) translate(184.875 21.525)"/><use xlink:href="#A" transform="matrix(1,0,0,1,205,325) translate(224.875 21.525)"/><path d="M1000 320h140v60h-140z" stroke="#000" stroke-opacity="0" stroke-width="2" fill="#fff" fill-opacity="0"/><g><use xlink:href="#B" transform="matrix(1,0,0,1,1005,325) translate(5.049999999999997 17.525)"/><use xlink:href="#C" transform="matrix(1,0,0,1,1005,325) translate(47.05 17.525)"/><use xlink:href="#D" transform="matrix(1,0,0,1,1005,325) translate(112 17.525)"/><use xlink:href="#E" transform="matrix(1,0,0,1,1005,325) translate(2.075000000000003 39.125)"/><use xlink:href="#F" transform="matrix(1,0,0,1,1005,325) translate(70.075 39.125)"/></g><path d="M640 380h300v60H640z" stroke="#000" stroke-opacity="0" stroke-width="2" fill="#fff" fill-opacity="0"/><g><use xlink:href="#G" transform="matrix(1,0,0,1,645,385) translate(0.5999999999999943 30.025)"/><use xlink:href="#H" transform="matrix(1,0,0,1,645,385) translate(37.599999999999994 30.025)"/><use xlink:href="#I" transform="matrix(1,0,0,1,645,385) translate(77.55 30.025)"/><use xlink:href="#J" transform="matrix(1,0,0,1,645,385) translate(95.5 30.025)"/><use xlink:href="#w" transform="matrix(1,0,0,1,645,385) translate(134.5 30.025)"/><use xlink:href="#K" transform="matrix(1,0,0,1,645,385) translate(154.5 30.025)"/><use xlink:href="#L" transform="matrix(1,0,0,1,645,385) translate(197.4 30.025)"/><use xlink:href="#M" transform="matrix(1,0,0,1,645,385) translate(242.4 30.025)"/><use xlink:href="#N" transform="matrix(1,0,0,1,645,385) translate(262.4 30.025)"/></g><path d="M640 480h316v60H640z" stroke="#000" stroke-opacity="0" stroke-width="2" fill="#fff" fill-opacity="0"/><g><use xlink:href="#p" transform="matrix(1,0,0,1,645,485) translate(3.2249999999999943 30.025)"/><use xlink:href="#O" transform="matrix(1,0,0,1,645,485) translate(46.125 30.025)"/><use xlink:href="#P" transform="matrix(1,0,0,1,645,485) translate(84.075 30.025)"/><use xlink:href="#Q" transform="matrix(1,0,0,1,645,485) translate(108.025 30.025)"/><use xlink:href="#R" transform="matrix(1,0,0,1,645,485) translate(128.97500000000002 30.025)"/><use xlink:href="#S" transform="matrix(1,0,0,1,645,485) translate(197.82500000000002 30.025)"/><use xlink:href="#T" transform="matrix(1,0,0,1,645,485) translate(250.82500000000002 30.025)"/></g><path d="M1000 574h140v60h-140z" stroke="#000" stroke-opacity="0" stroke-width="2" fill="#fff" fill-opacity="0"/><g><use xlink:href="#U" transform="matrix(1,0,0,1,1005,579) translate(16.349999999999994 17.525)"/><use xlink:href="#V" transform="matrix(1,0,0,1,1005,579) translate(69.65 17.525)"/><use xlink:href="#W" transform="matrix(1,0,0,1,1005,579) translate(15.549999999999997 39.125)"/><use xlink:href="#X" transform="matrix(1,0,0,1,1005,579) translate(33.5 39.125)"/></g><path d="M240 560h280v60H240z" stroke="#000" stroke-opacity="0" stroke-width="2" fill="#fff" fill-opacity="0"/><g><use xlink:href="#Y" transform="matrix(1,0,0,1,245,565) translate(8.025000000000006 30.025)"/><use xlink:href="#w" transform="matrix(1,0,0,1,245,565) translate(79.87500000000001 30.025)"/><use xlink:href="#Z" transform="matrix(1,0,0,1,245,565) translate(99.87500000000001 30.025)"/><use xlink:href="#y" transform="matrix(1,0,0,1,245,565) translate(141.725 30.025)"/><use xlink:href="#aa" transform="matrix(1,0,0,1,245,565) translate(164.67499999999998 30.025)"/><use xlink:href="#ab" transform="matrix(1,0,0,1,245,565) translate(217.975 30.025)"/></g><path d="M260 670h220v60H260z" stroke="#000" stroke-opacity="0" stroke-width="2" fill="#fff" fill-opacity="0"/><g><use xlink:href="#p" transform="matrix(1,0,0,1,265,675) translate(9.700000000000003 30.025)"/><use xlink:href="#I" transform="matrix(1,0,0,1,265,675) translate(52.60000000000001 30.025)"/><use xlink:href="#ac" transform="matrix(1,0,0,1,265,675) translate(70.55000000000001 30.025)"/><use xlink:href="#ad" transform="matrix(1,0,0,1,265,675) translate(129.5 30.025)"/><use xlink:href="#t" transform="matrix(1,0,0,1,265,675) translate(163.45 30.025)"/></g><path d="M360 40h440v63.33H360z" stroke="#000" stroke-opacity="0" stroke-width="2" fill="#fff" fill-opacity="0"/><g><use xlink:href="#ae" transform="matrix(1,0,0,1,365,45) translate(31.15740740740739 33.05555555555556)"/><use xlink:href="#af" transform="matrix(1,0,0,1,365,45) translate(90.63888888888889 33.05555555555556)"/><use xlink:href="#ag" transform="matrix(1,0,0,1,365,45) translate(166.00925925925927 33.05555555555556)"/><use xlink:href="#ah" transform="matrix(1,0,0,1,365,45) translate(343.2993827160494 33.05555555555556)"/></g><defs><path d="M275 0h-61l-44-196L126 0H64L0-248h53L97-49l45-199h58l43 199 44-199h52" id="ai"/><path d="M25-224v-37h50v37H25zM25 0v-190h50V0H25" id="aj"/><path d="M135-150c-39-12-60 13-60 57V0H25l-1-190h47c2 13-1 29 3 40 6-28 27-53 61-41v41" id="ak"/><path d="M185-48c-13 30-37 53-82 52C43 2 14-33 14-96s30-98 90-98c62 0 83 45 84 108H66c0 31 8 55 39 56 18 0 30-7 34-22zm-45-69c5-46-57-63-70-21-2 6-4 13-4 21h74" id="al"/><g id="a"><use transform="matrix(0.05,0,0,0.05,0,0)" xlink:href="#ai"/><use transform="matrix(0.05,0,0,0.05,16.8,0)" xlink:href="#aj"/><use transform="matrix(0.05,0,0,0.05,21.8,0)" xlink:href="#ak"/><use transform="matrix(0.05,0,0,0.05,28.8,0)" xlink:href="#al"/></g><path d="M169-182c-1-43-94-46-97-3 18 66 151 10 154 114 3 95-165 93-204 36-6-8-10-19-12-30l50-8c3 46 112 56 116 5-17-69-150-10-154-114-4-87 153-88 188-35 5 8 8 18 10 28" id="am"/><path d="M128 0H69L1-190h53L99-40l48-150h52" id="an"/><g id="b"><use transform="matrix(0.05,0,0,0.05,0,0)" xlink:href="#am"/><use transform="matrix(0.05,0,0,0.05,12,0)" xlink:href="#al"/><use transform="matrix(0.05,0,0,0.05,22,0)" xlink:href="#ak"/><use transform="matrix(0.05,0,0,0.05,29,0)" xlink:href="#an"/><use transform="matrix(0.05,0,0,0.05,39,0)" xlink:href="#al"/><use transform="matrix(0.05,0,0,0.05,49,0)" xlink:href="#ak"/></g><path d="M24 0v-248h195v40H76v63h132v40H76v65h150V0H24" id="ao"/><path d="M135-194c87-1 58 113 63 194h-50c-7-57 23-157-34-157-59 0-34 97-39 157H25l-1-190h47c2 12-1 28 3 38 12-26 28-41 61-42" id="ap"/><path d="M88-194c31-1 46 15 58 34l-1-101h50l1 261h-48c-2-10 0-23-3-31C134-8 116 4 84 4 32 4 16-41 15-95c0-56 19-97 73-99zm17 164c33 0 40-30 41-66 1-37-9-64-41-64s-38 30-39 65c0 43 13 65 39 65" id="aq"/><g id="c"><use transform="matrix(0.05,0,0,0.05,0,0)" xlink:href="#ao"/><use transform="matrix(0.05,0,0,0.05,12,0)" xlink:href="#ap"/><use transform="matrix(0.05,0,0,0.05,22.950000000000003,0)" xlink:href="#aq"/></g><path d="M238-95c0 69-44 99-111 99C63 4 22-25 22-93v-155h51v151c-1 38 19 59 55 60 90 1 49-130 58-211h52v153" id="ar"/><path d="M137-138c1-29-70-34-71-4 15 46 118 7 119 86 1 83-164 76-172 9l43-7c4 19 20 25 44 25 33 8 57-30 24-41C81-84 22-81 20-136c-2-80 154-74 161-7" id="as"/><g id="d"><use transform="matrix(0.05,0,0,0.05,0,0)" xlink:href="#ar"/><use transform="matrix(0.05,0,0,0.05,12.950000000000001,0)" xlink:href="#as"/><use transform="matrix(0.05,0,0,0.05,22.950000000000003,0)" xlink:href="#al"/><use transform="matrix(0.05,0,0,0.05,32.95,0)" xlink:href="#ak"/></g><path d="M87 75C49 33 22-17 22-94c0-76 28-126 65-167h31c-38 41-64 92-64 168S80 34 118 75H87" id="at"/><path d="M210-169c-67 3-38 105-44 169h-31v-121c0-29-5-50-35-48C34-165 62-65 56 0H25l-1-190h30c1 10-1 24 2 32 10-44 99-50 107 0 11-21 27-35 58-36 85-2 47 119 55 194h-31v-121c0-29-5-49-35-48" id="au"/><path d="M100-194c62-1 85 37 85 99 1 63-27 99-86 99S16-35 15-95c0-66 28-99 85-99zM99-20c44 1 53-31 53-75 0-43-8-75-51-75s-53 32-53 75 10 74 51 75" id="av"/><path d="M115-194c53 0 69 39 70 98 0 66-23 100-70 100C84 3 66-7 56-30L54 0H23l1-261h32v101c10-23 28-34 59-34zm-8 174c40 0 45-34 45-75 0-40-5-75-45-74-42 0-51 32-51 76 0 43 10 73 51 73" id="aw"/><path d="M24-231v-30h32v30H24zM24 0v-190h32V0H24" id="ax"/><path d="M24 0v-261h32V0H24" id="ay"/><path d="M100-194c63 0 86 42 84 106H49c0 40 14 67 53 68 26 1 43-12 49-29l28 8c-11 28-37 45-77 45C44 4 14-33 15-96c1-61 26-98 85-98zm52 81c6-60-76-77-97-28-3 7-6 17-6 28h103" id="az"/><path d="M16-82v-28h88v28H16" id="aA"/><path d="M68-38c1 34 0 65-14 84H32c9-13 17-26 17-46H33v-38h35" id="aB"/><g id="e"><use transform="matrix(0.05,0,0,0.05,0,0)" xlink:href="#at"/><use transform="matrix(0.05,0,0,0.05,5.95,0)" xlink:href="#au"/><use transform="matrix(0.05,0,0,0.05,20.900000000000002,0)" xlink:href="#av"/><use transform="matrix(0.05,0,0,0.05,30.900000000000002,0)" xlink:href="#aw"/><use transform="matrix(0.05,0,0,0.05,40.900000000000006,0)" xlink:href="#ax"/><use transform="matrix(0.05,0,0,0.05,44.85000000000001,0)" xlink:href="#ay"/><use transform="matrix(0.05,0,0,0.05,48.80000000000001,0)" xlink:href="#az"/><use transform="matrix(0.05,0,0,0.05,58.80000000000001,0)" xlink:href="#aA"/><use transform="matrix(0.05,0,0,0.05,64.75000000000001,0)" xlink:href="#aB"/></g><path d="M85-194c31 0 48 13 60 33l-1-100h32l1 261h-30c-2-10 0-23-3-31C134-8 116 4 85 4 32 4 16-35 15-94c0-66 23-100 70-100zm9 24c-40 0-46 34-46 75 0 40 6 74 45 74 42 0 51-32 51-76 0-42-9-74-50-73" id="aC"/><path d="M135-143c-3-34-86-38-87 0 15 53 115 12 119 90S17 21 10-45l28-5c4 36 97 45 98 0-10-56-113-15-118-90-4-57 82-63 122-42 12 7 21 19 24 35" id="aD"/><path d="M143 0L79-87 56-68V0H24v-261h32v163l83-92h37l-77 82L181 0h-38" id="aE"/><path d="M59-47c-2 24 18 29 38 22v24C64 9 27 4 27-40v-127H5v-23h24l9-43h21v43h35v23H59v120" id="aF"/><path d="M115-194c55 1 70 41 70 98S169 2 115 4C84 4 66-9 55-30l1 105H24l-1-265h31l2 30c10-21 28-34 59-34zm-8 174c40 0 45-34 45-75s-6-73-45-74c-42 0-51 32-51 76 0 43 10 73 51 73" id="aG"/><g id="f"><use transform="matrix(0.05,0,0,0.05,0,0)" xlink:href="#aC"/><use transform="matrix(0.05,0,0,0.05,10,0)" xlink:href="#az"/><use transform="matrix(0.05,0,0,0.05,20,0)" xlink:href="#aD"/><use transform="matrix(0.05,0,0,0.05,29,0)" xlink:href="#aE"/><use transform="matrix(0.05,0,0,0.05,38,0)" xlink:href="#aF"/><use transform="matrix(0.05,0,0,0.05,43,0)" xlink:href="#av"/><use transform="matrix(0.05,0,0,0.05,53,0)" xlink:href="#aG"/><use transform="matrix(0.05,0,0,0.05,63,0)" xlink:href="#aA"/><use transform="matrix(0.05,0,0,0.05,68.95,0)" xlink:href="#aB"/></g><path d="M206 0h-36l-40-164L89 0H53L-1-190h32L70-26l43-164h34l41 164 42-164h31" id="aH"/><path d="M141-36C126-15 110 5 73 4 37 3 15-17 15-53c-1-64 63-63 125-63 3-35-9-54-41-54-24 1-41 7-42 31l-33-3c5-37 33-52 76-52 45 0 72 20 72 64v82c-1 20 7 32 28 27v20c-31 9-61-2-59-35zM48-53c0 20 12 33 32 33 41-3 63-29 60-74-43 2-92-5-92 41" id="aI"/><path d="M33-261c38 41 65 92 65 168S71 34 33 75H2C39 34 66-17 66-93S39-220 2-261h31" id="aJ"/><g id="g"><use transform="matrix(0.05,0,0,0.05,0,0)" xlink:href="#aH"/><use transform="matrix(0.05,0,0,0.05,12.950000000000001,0)" xlink:href="#az"/><use transform="matrix(0.05,0,0,0.05,22.950000000000003,0)" xlink:href="#aw"/><use transform="matrix(0.05,0,0,0.05,32.95,0)" xlink:href="#aA"/><use transform="matrix(0.05,0,0,0.05,38.900000000000006,0)" xlink:href="#aI"/><use transform="matrix(0.05,0,0,0.05,48.900000000000006,0)" xlink:href="#aG"/><use transform="matrix(0.05,0,0,0.05,58.900000000000006,0)" xlink:href="#aG"/><use transform="matrix(0.05,0,0,0.05,68.9,0)" xlink:href="#aJ"/></g><path d="M24 0v-248h52V0H24" id="aK"/><path d="M115-3C79 11 28 4 28-45v-112H4v-33h27l15-45h31v45h36v33H77v99c-1 23 16 31 38 25v30" id="aL"/><path d="M123 10C108 53 80 86 19 72V37c35 8 53-11 59-39L3-190h52l48 148c12-52 28-100 44-148h51" id="aM"/><g id="h"><use transform="matrix(0.05,0,0,0.05,0,0)" xlink:href="#aK"/><use transform="matrix(0.05,0,0,0.05,5,0)" xlink:href="#aq"/><use transform="matrix(0.05,0,0,0.05,15.950000000000001,0)" xlink:href="#al"/><use transform="matrix(0.05,0,0,0.05,25.950000000000003,0)" xlink:href="#ap"/><use transform="matrix(0.05,0,0,0.05,36.900000000000006,0)" xlink:href="#aL"/><use transform="matrix(0.05,0,0,0.05,42.85000000000001,0)" xlink:href="#aj"/><use transform="matrix(0.05,0,0,0.05,47.85000000000001,0)" xlink:href="#aL"/><use transform="matrix(0.05,0,0,0.05,53.80000000000001,0)" xlink:href="#aM"/></g><path d="M24-248c93 1 206-16 204 79-1 75-69 88-152 82V0H24v-248zm52 121c47 0 100 7 100-41 0-47-54-39-100-39v80" id="aN"/><path d="M110-194c64 0 96 36 96 99 0 64-35 99-97 99-61 0-95-36-95-99 0-62 34-99 96-99zm-1 164c35 0 45-28 45-65 0-40-10-65-43-65-34 0-45 26-45 65 0 36 10 65 43 65" id="aO"/><g id="i"><use transform="matrix(0.05,0,0,0.05,0,0)" xlink:href="#aN"/><use transform="matrix(0.05,0,0,0.05,12,0)" xlink:href="#ak"/><use transform="matrix(0.05,0,0,0.05,19,0)" xlink:href="#aO"/><use transform="matrix(0.05,0,0,0.05,29.950000000000003,0)" xlink:href="#an"/><use transform="matrix(0.05,0,0,0.05,39.95,0)" xlink:href="#aj"/><use transform="matrix(0.05,0,0,0.05,44.95,0)" xlink:href="#aq"/><use transform="matrix(0.05,0,0,0.05,55.900000000000006,0)" xlink:href="#al"/><use transform="matrix(0.05,0,0,0.05,65.9,0)" xlink:href="#ak"/></g><path d="M67-93c0 74 22 123 53 168H70C40 30 18-18 18-93s22-123 52-168h50c-32 44-53 94-53 168" id="aP"/><path d="M102-93c0 74-22 123-52 168H0C30 29 54-18 53-93c0-74-22-123-53-168h50c30 45 52 94 52 168" id="aQ"/><g id="j"><use transform="matrix(0.05,0,0,0.05,0,0)" xlink:href="#aP"/><use transform="matrix(0.05,0,0,0.05,5.95,0)" xlink:href="#aK"/><use transform="matrix(0.05,0,0,0.05,10.95,0)" xlink:href="#aq"/><use transform="matrix(0.05,0,0,0.05,21.9,0)" xlink:href="#aN"/><use transform="matrix(0.05,0,0,0.05,33.9,0)" xlink:href="#aQ"/></g><path d="M205 0l-28-72H64L36 0H1l101-248h38L239 0h-34zm-38-99l-47-123c-12 45-31 82-46 123h93" id="aR"/><use transform="matrix(0.05,0,0,0.05,0,0)" xlink:href="#aR" id="k"/><path d="M160-131c35 5 61 23 61 61C221 17 115-2 30 0v-248c76 3 177-17 177 60 0 33-19 50-47 57zm-97-11c50-1 110 9 110-42 0-47-63-36-110-37v79zm0 115c55-2 124 14 124-45 0-56-70-42-124-44v89" id="aS"/><use transform="matrix(0.05,0,0,0.05,0,0)" xlink:href="#aS" id="l"/><path d="M212-179c-10-28-35-45-73-45-59 0-87 40-87 99 0 60 29 101 89 101 43 0 62-24 78-52l27 14C228-24 195 4 139 4 59 4 22-46 18-125c-6-104 99-153 187-111 19 9 31 26 39 46" id="aT"/><use transform="matrix(0.05,0,0,0.05,0,0)" xlink:href="#aT" id="m"/><path d="M30-248c118-7 216 8 213 122C240-48 200 0 122 0H30v-248zM63-27c89 8 146-16 146-99s-60-101-146-95v194" id="aU"/><use transform="matrix(0.05,0,0,0.05,0,0)" xlink:href="#aU" id="n"/><path d="M30 0v-248h187v28H63v79h144v27H63v87h162V0H30" id="aV"/><use transform="matrix(0.05,0,0,0.05,0,0)" xlink:href="#aV" id="o"/><path d="M232-93c-1 65-40 97-104 97C67 4 28-28 28-90v-158h33c8 89-33 224 67 224 102 0 64-133 71-224h33v155" id="aW"/><path d="M114-163C36-179 61-72 57 0H25l-1-190h30c1 12-1 29 2 39 6-27 23-49 58-41v29" id="aX"/><g id="p"><use transform="matrix(0.05,0,0,0.05,0,0)" xlink:href="#aW"/><use transform="matrix(0.05,0,0,0.05,12.950000000000001,0)" xlink:href="#aD"/><use transform="matrix(0.05,0,0,0.05,21.950000000000003,0)" xlink:href="#az"/><use transform="matrix(0.05,0,0,0.05,31.950000000000003,0)" xlink:href="#aX"/></g><g id="q"><use transform="matrix(0.05,0,0,0.05,0,0)" xlink:href="#aD"/><use transform="matrix(0.05,0,0,0.05,9,0)" xlink:href="#aF"/><use transform="matrix(0.05,0,0,0.05,14,0)" xlink:href="#aI"/><use transform="matrix(0.05,0,0,0.05,24,0)" xlink:href="#aX"/><use transform="matrix(0.05,0,0,0.05,29.950000000000003,0)" xlink:href="#aF"/><use transform="matrix(0.05,0,0,0.05,34.95,0)" xlink:href="#aD"/></g><path d="M84 4C-5 8 30-112 23-190h32v120c0 31 7 50 39 49 72-2 45-101 50-169h31l1 190h-30c-1-10 1-25-2-33-11 22-28 36-60 37" id="aY"/><path d="M106-169C34-169 62-67 57 0H25v-261h32l-1 103c12-21 28-36 61-36 89 0 53 116 60 194h-32v-121c2-32-8-49-39-48" id="aZ"/><path d="M117-194c89-4 53 116 60 194h-32v-121c0-31-8-49-39-48C34-167 62-67 57 0H25l-1-190h30c1 10-1 24 2 32 11-22 29-35 61-36" id="ba"/><path d="M96-169c-40 0-48 33-48 73s9 75 48 75c24 0 41-14 43-38l32 2c-6 37-31 61-74 61-59 0-76-41-82-99-10-93 101-131 147-64 4 7 5 14 7 22l-32 3c-4-21-16-35-41-35" id="bb"/><g id="r"><use transform="matrix(0.05,0,0,0.05,0,0)" xlink:href="#aI"/><use transform="matrix(0.05,0,0,0.05,10,0)" xlink:href="#aY"/><use transform="matrix(0.05,0,0,0.05,20,0)" xlink:href="#aF"/><use transform="matrix(0.05,0,0,0.05,25,0)" xlink:href="#aZ"/><use transform="matrix(0.05,0,0,0.05,35,0)" xlink:href="#az"/><use transform="matrix(0.05,0,0,0.05,45,0)" xlink:href="#ba"/><use transform="matrix(0.05,0,0,0.05,55,0)" xlink:href="#aF"/><use transform="matrix(0.05,0,0,0.05,60,0)" xlink:href="#ax"/><use transform="matrix(0.05,0,0,0.05,63.95,0)" xlink:href="#bb"/><use transform="matrix(0.05,0,0,0.05,72.95,0)" xlink:href="#aI"/><use transform="matrix(0.05,0,0,0.05,82.95,0)" xlink:href="#aF"/><use transform="matrix(0.05,0,0,0.05,87.95,0)" xlink:href="#ax"/><use transform="matrix(0.05,0,0,0.05,91.9,0)" xlink:href="#av"/><use transform="matrix(0.05,0,0,0.05,101.9,0)" xlink:href="#ba"/></g><g id="s"><use transform="matrix(0.05,0,0,0.05,0,0)" xlink:href="#ax"/><use transform="matrix(0.05,0,0,0.05,3.95,0)" xlink:href="#ba"/></g><path d="M266 0h-40l-56-210L115 0H75L2-248h35L96-30l15-64 43-154h32l59 218 59-218h35" id="bc"/><g id="t"><use transform="matrix(0.05,0,0,0.05,0,0)" xlink:href="#bc"/><use transform="matrix(0.05,0,0,0.05,16.95,0)" xlink:href="#ax"/><use transform="matrix(0.05,0,0,0.05,20.9,0)" xlink:href="#aX"/><use transform="matrix(0.05,0,0,0.05,26.849999999999994,0)" xlink:href="#az"/></g><path d="M197 0v-115H63V0H30v-248h33v105h134v-105h34V0h-34" id="bd"/><path d="M127-220V0H93v-220H8v-28h204v28h-85" id="be"/><path d="M30-248c87 1 191-15 191 75 0 78-77 80-158 76V0H30v-248zm33 125c57 0 124 11 124-50 0-59-68-47-124-48v98" id="bf"/><g id="u"><use transform="matrix(0.05,0,0,0.05,0,0)" xlink:href="#bd"/><use transform="matrix(0.05,0,0,0.05,12.950000000000001,0)" xlink:href="#be"/><use transform="matrix(0.05,0,0,0.05,23.900000000000002,0)" xlink:href="#be"/><use transform="matrix(0.05,0,0,0.05,34.85,0)" xlink:href="#bf"/></g><path d="M140-251c81 0 123 46 123 126C263-46 219 4 140 4 59 4 17-45 17-125s42-126 123-126zm0 227c63 0 89-41 89-101s-29-99-89-99c-61 0-89 39-89 99S79-25 140-24" id="bg"/><path d="M185-189c-5-48-123-54-124 2 14 75 158 14 163 119 3 78-121 87-175 55-17-10-28-26-33-46l33-7c5 56 141 63 141-1 0-78-155-14-162-118-5-82 145-84 179-34 5 7 8 16 11 25" id="bh"/><g id="v"><use transform="matrix(0.05,0,0,0.05,0,0)" xlink:href="#bf"/><use transform="matrix(0.05,0,0,0.05,12,0)" xlink:href="#bg"/><use transform="matrix(0.05,0,0,0.05,26,0)" xlink:href="#bh"/><use transform="matrix(0.05,0,0,0.05,38,0)" xlink:href="#be"/></g><g id="w"><use transform="matrix(0.05,0,0,0.05,0,0)" xlink:href="#aF"/><use transform="matrix(0.05,0,0,0.05,5,0)" xlink:href="#av"/></g><path d="M33 0v-248h34V0H33" id="bi"/><g id="x"><use transform="matrix(0.05,0,0,0.05,0,0)" xlink:href="#bi"/><use transform="matrix(0.05,0,0,0.05,5,0)" xlink:href="#aC"/><use transform="matrix(0.05,0,0,0.05,15,0)" xlink:href="#bf"/></g><path d="M0 4l72-265h28L28 4H0" id="bj"/><g id="y"><use transform="matrix(0.05,0,0,0.05,0,0)" xlink:href="#aH"/><use transform="matrix(0.05,0,0,0.05,12.950000000000001,0)" xlink:href="#bj"/></g><g id="z"><use transform="matrix(0.05,0,0,0.05,0,0)" xlink:href="#aI"/><use transform="matrix(0.05,0,0,0.05,10,0)" xlink:href="#aY"/><use transform="matrix(0.05,0,0,0.05,20,0)" xlink:href="#aF"/><use transform="matrix(0.05,0,0,0.05,25,0)" xlink:href="#aZ"/></g><path d="M145-31C134-9 116 4 85 4 32 4 16-35 15-94c0-59 17-99 70-100 32-1 48 14 60 33 0-11-1-24 2-32h30l-1 268h-32zM93-21c41 0 51-33 51-76s-8-73-50-73c-40 0-46 35-46 75s5 74 45 74" id="bk"/><g id="A"><use transform="matrix(0.05,0,0,0.05,0,0)" xlink:href="#aX"/><use transform="matrix(0.05,0,0,0.05,5.95,0)" xlink:href="#az"/><use transform="matrix(0.05,0,0,0.05,15.949999999999998,0)" xlink:href="#bk"/><use transform="matrix(0.05,0,0,0.05,25.950000000000003,0)" xlink:href="#aY"/><use transform="matrix(0.05,0,0,0.05,35.95,0)" xlink:href="#az"/><use transform="matrix(0.05,0,0,0.05,45.95,0)" xlink:href="#aD"/><use transform="matrix(0.05,0,0,0.05,54.95,0)" xlink:href="#aF"/></g><g id="B"><use transform="matrix(0.05,0,0,0.05,0,0)" xlink:href="#aR"/><use transform="matrix(0.05,0,0,0.05,12,0)" xlink:href="#aY"/><use transform="matrix(0.05,0,0,0.05,22,0)" xlink:href="#aF"/><use transform="matrix(0.05,0,0,0.05,27,0)" xlink:href="#aZ"/></g><g id="C"><use transform="matrix(0.05,0,0,0.05,0,0)" xlink:href="#aX"/><use transform="matrix(0.05,0,0,0.05,5.95,0)" xlink:href="#az"/><use transform="matrix(0.05,0,0,0.05,15.949999999999998,0)" xlink:href="#bk"/><use transform="matrix(0.05,0,0,0.05,25.950000000000003,0)" xlink:href="#aY"/><use transform="matrix(0.05,0,0,0.05,35.95,0)" xlink:href="#az"/><use transform="matrix(0.05,0,0,0.05,45.95,0)" xlink:href="#aD"/><use transform="matrix(0.05,0,0,0.05,54.95,0)" xlink:href="#aF"/></g><g id="D"><use transform="matrix(0.05,0,0,0.05,0,0)" xlink:href="#ax"/><use transform="matrix(0.05,0,0,0.05,3.95,0)" xlink:href="#aD"/></g><g id="E"><use transform="matrix(0.05,0,0,0.05,0,0)" xlink:href="#aG"/><use transform="matrix(0.05,0,0,0.05,10,0)" xlink:href="#aI"/><use transform="matrix(0.05,0,0,0.05,20,0)" xlink:href="#aD"/><use transform="matrix(0.05,0,0,0.05,29,0)" xlink:href="#aD"/><use transform="matrix(0.05,0,0,0.05,38,0)" xlink:href="#az"/><use transform="matrix(0.05,0,0,0.05,48,0)" xlink:href="#aC"/><use transform="matrix(0.05,0,0,0.05,58,0)" xlink:href="#aB"/></g><path d="M108 0H70L1-190h34L89-25l56-165h34" id="bl"/><path d="M101-234c-31-9-42 10-38 44h38v23H63V0H32v-167H5v-23h27c-7-52 17-82 69-68v24" id="bm"/><g id="F"><use transform="matrix(0.05,0,0,0.05,0,0)" xlink:href="#bl"/><use transform="matrix(0.05,0,0,0.05,9,0)" xlink:href="#az"/><use transform="matrix(0.05,0,0,0.05,19,0)" xlink:href="#aX"/><use transform="matrix(0.05,0,0,0.05,24.95,0)" xlink:href="#ax"/><use transform="matrix(0.05,0,0,0.05,28.899999999999995,0)" xlink:href="#bm"/><use transform="matrix(0.05,0,0,0.05,33.9,0)" xlink:href="#ax"/><use transform="matrix(0.05,0,0,0.05,37.85,0)" xlink:href="#az"/><use transform="matrix(0.05,0,0,0.05,47.85,0)" xlink:href="#aC"/></g><g id="G"><use transform="matrix(0.05,0,0,0.05,0,0)" xlink:href="#aV"/><use transform="matrix(0.05,0,0,0.05,12,0)" xlink:href="#ba"/><use transform="matrix(0.05,0,0,0.05,22,0)" xlink:href="#aC"/></g><g id="H"><use transform="matrix(0.05,0,0,0.05,0,0)" xlink:href="#aY"/><use transform="matrix(0.05,0,0,0.05,10,0)" xlink:href="#aD"/><use transform="matrix(0.05,0,0,0.05,19,0)" xlink:href="#az"/><use transform="matrix(0.05,0,0,0.05,29,0)" xlink:href="#aX"/></g><g id="I"><use transform="matrix(0.05,0,0,0.05,0,0)" xlink:href="#ax"/><use transform="matrix(0.05,0,0,0.05,3.95,0)" xlink:href="#aD"/></g><g id="J"><use transform="matrix(0.05,0,0,0.05,0,0)" xlink:href="#aD"/><use transform="matrix(0.05,0,0,0.05,9,0)" xlink:href="#az"/><use transform="matrix(0.05,0,0,0.05,19,0)" xlink:href="#ba"/><use transform="matrix(0.05,0,0,0.05,29,0)" xlink:href="#aF"/></g><path d="M177-190C167-65 218 103 67 71c-23-6-38-20-44-43l32-5c15 47 100 32 89-28v-30C133-14 115 1 83 1 29 1 15-40 15-95c0-56 16-97 71-98 29-1 48 16 59 35 1-10 0-23 2-32h30zM94-22c36 0 50-32 50-73 0-42-14-75-50-75-39 0-46 34-46 75s6 73 46 73" id="bn"/><g id="K"><use transform="matrix(0.05,0,0,0.05,0,0)" xlink:href="#ay"/><use transform="matrix(0.05,0,0,0.05,3.95,0)" xlink:href="#av"/><use transform="matrix(0.05,0,0,0.05,13.949999999999998,0)" xlink:href="#bn"/><use transform="matrix(0.05,0,0,0.05,23.95,0)" xlink:href="#ax"/><use transform="matrix(0.05,0,0,0.05,27.899999999999995,0)" xlink:href="#ba"/></g><g id="L"><use transform="matrix(0.05,0,0,0.05,0,0)" xlink:href="#aG"/><use transform="matrix(0.05,0,0,0.05,10,0)" xlink:href="#aI"/><use transform="matrix(0.05,0,0,0.05,20,0)" xlink:href="#bn"/><use transform="matrix(0.05,0,0,0.05,30,0)" xlink:href="#az"/></g><g id="M"><use transform="matrix(0.05,0,0,0.05,0,0)" xlink:href="#aI"/><use transform="matrix(0.05,0,0,0.05,10,0)" xlink:href="#aF"/></g><g id="N"><use transform="matrix(0.05,0,0,0.05,0,0)" xlink:href="#bi"/><use transform="matrix(0.05,0,0,0.05,5,0)" xlink:href="#aC"/><use transform="matrix(0.05,0,0,0.05,15,0)" xlink:href="#bf"/></g><g id="O"><use transform="matrix(0.05,0,0,0.05,0,0)" xlink:href="#ay"/><use transform="matrix(0.05,0,0,0.05,3.95,0)" xlink:href="#av"/><use transform="matrix(0.05,0,0,0.05,13.949999999999998,0)" xlink:href="#bn"/><use transform="matrix(0.05,0,0,0.05,23.95,0)" xlink:href="#aD"/></g><g id="P"><use transform="matrix(0.05,0,0,0.05,0,0)" xlink:href="#ax"/><use transform="matrix(0.05,0,0,0.05,3.95,0)" xlink:href="#ba"/><use transform="matrix(0.05,0,0,0.05,13.949999999999998,0)" xlink:href="#aB"/></g><g id="Q"><use transform="matrix(0.05,0,0,0.05,0,0)" xlink:href="#av"/><use transform="matrix(0.05,0,0,0.05,10,0)" xlink:href="#aX"/></g><g id="R"><use transform="matrix(0.05,0,0,0.05,0,0)" xlink:href="#aw"/><use transform="matrix(0.05,0,0,0.05,10,0)" xlink:href="#aX"/><use transform="matrix(0.05,0,0,0.05,15.949999999999998,0)" xlink:href="#av"/><use transform="matrix(0.05,0,0,0.05,25.950000000000003,0)" xlink:href="#aH"/><use transform="matrix(0.05,0,0,0.05,38.9,0)" xlink:href="#aD"/><use transform="matrix(0.05,0,0,0.05,47.9,0)" xlink:href="#az"/><use transform="matrix(0.05,0,0,0.05,57.900000000000006,0)" xlink:href="#aX"/></g><g id="S"><use transform="matrix(0.05,0,0,0.05,0,0)" xlink:href="#aD"/><use transform="matrix(0.05,0,0,0.05,9,0)" xlink:href="#az"/><use transform="matrix(0.05,0,0,0.05,19,0)" xlink:href="#ba"/><use transform="matrix(0.05,0,0,0.05,29,0)" xlink:href="#aC"/><use transform="matrix(0.05,0,0,0.05,39,0)" xlink:href="#aD"/></g><g id="T"><use transform="matrix(0.05,0,0,0.05,0,0)" xlink:href="#bb"/><use transform="matrix(0.05,0,0,0.05,9,0)" xlink:href="#av"/><use transform="matrix(0.05,0,0,0.05,19,0)" xlink:href="#av"/><use transform="matrix(0.05,0,0,0.05,29,0)" xlink:href="#aE"/><use transform="matrix(0.05,0,0,0.05,38,0)" xlink:href="#ax"/><use transform="matrix(0.05,0,0,0.05,41.95,0)" xlink:href="#az"/></g><path d="M240 0l2-218c-23 76-54 145-80 218h-23L58-218 59 0H30v-248h44l77 211c21-75 51-140 76-211h43V0h-30" id="bo"/><path d="M30 0v-248h33v221h125V0H30" id="bp"/><g id="U"><use transform="matrix(0.05,0,0,0.05,0,0)" xlink:href="#bh"/><use transform="matrix(0.05,0,0,0.05,12,0)" xlink:href="#aR"/><use transform="matrix(0.05,0,0,0.05,24,0)" xlink:href="#bo"/><use transform="matrix(0.05,0,0,0.05,38.95,0)" xlink:href="#bp"/></g><g id="V"><use transform="matrix(0.05,0,0,0.05,0,0)" xlink:href="#aF"/><use transform="matrix(0.05,0,0,0.05,5,0)" xlink:href="#av"/><use transform="matrix(0.05,0,0,0.05,15,0)" xlink:href="#aE"/><use transform="matrix(0.05,0,0,0.05,24,0)" xlink:href="#az"/><use transform="matrix(0.05,0,0,0.05,34,0)" xlink:href="#ba"/></g><g id="W"><use transform="matrix(0.05,0,0,0.05,0,0)" xlink:href="#ax"/><use transform="matrix(0.05,0,0,0.05,3.95,0)" xlink:href="#aD"/></g><g id="X"><use transform="matrix(0.05,0,0,0.05,0,0)" xlink:href="#bn"/><use transform="matrix(0.05,0,0,0.05,10,0)" xlink:href="#az"/><use transform="matrix(0.05,0,0,0.05,20,0)" xlink:href="#ba"/><use transform="matrix(0.05,0,0,0.05,30,0)" xlink:href="#az"/><use transform="matrix(0.05,0,0,0.05,40,0)" xlink:href="#aX"/><use transform="matrix(0.05,0,0,0.05,45.95,0)" xlink:href="#aI"/><use transform="matrix(0.05,0,0,0.05,55.95,0)" xlink:href="#aF"/><use transform="matrix(0.05,0,0,0.05,60.95,0)" xlink:href="#az"/><use transform="matrix(0.05,0,0,0.05,70.95,0)" xlink:href="#aC"/></g><path d="M233-177c-1 41-23 64-60 70L243 0h-38l-65-103H63V0H30v-248c88 3 205-21 203 71zM63-129c60-2 137 13 137-47 0-61-80-42-137-45v92" id="bq"/><g id="Y"><use transform="matrix(0.05,0,0,0.05,0,0)" xlink:href="#bq"/><use transform="matrix(0.05,0,0,0.05,12.950000000000001,0)" xlink:href="#az"/><use transform="matrix(0.05,0,0,0.05,22.950000000000003,0)" xlink:href="#aC"/><use transform="matrix(0.05,0,0,0.05,32.95,0)" xlink:href="#ax"/><use transform="matrix(0.05,0,0,0.05,36.900000000000006,0)" xlink:href="#aX"/><use transform="matrix(0.05,0,0,0.05,42.85000000000001,0)" xlink:href="#az"/><use transform="matrix(0.05,0,0,0.05,52.85,0)" xlink:href="#bb"/><use transform="matrix(0.05,0,0,0.05,61.85,0)" xlink:href="#aF"/></g><g id="Z"><use transform="matrix(0.05,0,0,0.05,0,0)" xlink:href="#bc"/><use transform="matrix(0.05,0,0,0.05,16.95,0)" xlink:href="#ax"/><use transform="matrix(0.05,0,0,0.05,20.9,0)" xlink:href="#aX"/><use transform="matrix(0.05,0,0,0.05,26.849999999999994,0)" xlink:href="#az"/></g><g id="aa"><use transform="matrix(0.05,0,0,0.05,0,0)" xlink:href="#bh"/><use transform="matrix(0.05,0,0,0.05,12,0)" xlink:href="#aR"/><use transform="matrix(0.05,0,0,0.05,24,0)" xlink:href="#bo"/><use transform="matrix(0.05,0,0,0.05,38.95,0)" xlink:href="#bp"/></g><g id="ab"><use transform="matrix(0.05,0,0,0.05,0,0)" xlink:href="#aF"/><use transform="matrix(0.05,0,0,0.05,5,0)" xlink:href="#av"/><use transform="matrix(0.05,0,0,0.05,15,0)" xlink:href="#aE"/><use transform="matrix(0.05,0,0,0.05,24,0)" xlink:href="#az"/><use transform="matrix(0.05,0,0,0.05,34,0)" xlink:href="#ba"/></g><g id="ac"><use transform="matrix(0.05,0,0,0.05,0,0)" xlink:href="#ay"/><use transform="matrix(0.05,0,0,0.05,3.95,0)" xlink:href="#av"/><use transform="matrix(0.05,0,0,0.05,13.949999999999998,0)" xlink:href="#bn"/><use transform="matrix(0.05,0,0,0.05,23.95,0)" xlink:href="#bn"/><use transform="matrix(0.05,0,0,0.05,33.95,0)" xlink:href="#az"/><use transform="matrix(0.05,0,0,0.05,43.95,0)" xlink:href="#aC"/></g><g id="ad"><use transform="matrix(0.05,0,0,0.05,0,0)" xlink:href="#ax"/><use transform="matrix(0.05,0,0,0.05,3.95,0)" xlink:href="#ba"/><use transform="matrix(0.05,0,0,0.05,13.949999999999998,0)" xlink:href="#aF"/><use transform="matrix(0.05,0,0,0.05,18.95,0)" xlink:href="#av"/></g><g id="ae"><use transform="matrix(0.06790123456790124,0,0,0.06790123456790124,0,0)" xlink:href="#ai"/><use transform="matrix(0.06790123456790124,0,0,0.06790123456790124,22.814814814814824,0)" xlink:href="#aj"/><use transform="matrix(0.06790123456790124,0,0,0.06790123456790124,29.604938271604944,0)" xlink:href="#ak"/><use transform="matrix(0.06790123456790124,0,0,0.06790123456790124,39.111111111111114,0)" xlink:href="#al"/></g><path d="M199 0l-22-63H83L61 0H9l90-248h61L250 0h-51zm-33-102l-36-108c-10 38-24 72-36 108h72" id="br"/><path d="M230 0l2-204L168 0h-37L68-204 70 0H24v-248h70l56 185 57-185h69V0h-46" id="bs"/><path d="M24 0v-248h52v208h133V0H24" id="bt"/><g id="af"><use transform="matrix(0.06790123456790124,0,0,0.06790123456790124,0,0)" xlink:href="#am"/><use transform="matrix(0.06790123456790124,0,0,0.06790123456790124,16.296296296296298,0)" xlink:href="#br"/><use transform="matrix(0.06790123456790124,0,0,0.06790123456790124,33.88271604938272,0)" xlink:href="#bs"/><use transform="matrix(0.06790123456790124,0,0,0.06790123456790124,54.18518518518519,0)" xlink:href="#bt"/></g><path d="M85 4C-2 5 27-109 22-190h50c7 57-23 150 33 157 60-5 35-97 40-157h50l1 190h-47c-2-12 1-28-3-38-12 25-28 42-61 42" id="bu"/><path d="M114-157C55-157 80-60 75 0H25v-261h50l-1 109c12-26 28-41 61-42 86-1 58 113 63 194h-50c-7-57 23-157-34-157" id="bv"/><path d="M190-63c-7 42-38 67-86 67-59 0-84-38-90-98-12-110 154-137 174-36l-49 2c-2-19-15-32-35-32-30 0-35 28-38 64-6 74 65 87 74 30" id="bw"/><path d="M133-34C117-15 103 5 69 4 32 3 11-16 11-54c-1-60 55-63 116-61 1-26-3-47-28-47-18 1-26 9-28 27l-52-2c7-38 36-58 82-57s74 22 75 68l1 82c-1 14 12 18 25 15v27c-30 8-71 5-69-32zm-48 3c29 0 43-24 42-57-32 0-66-3-65 30 0 17 8 27 23 27" id="bx"/><g id="ag"><use transform="matrix(0.06790123456790124,0,0,0.06790123456790124,0,0)" xlink:href="#br"/><use transform="matrix(0.06790123456790124,0,0,0.06790123456790124,17.58641975308642,0)" xlink:href="#bu"/><use transform="matrix(0.06790123456790124,0,0,0.06790123456790124,32.45679012345679,0)" xlink:href="#aL"/><use transform="matrix(0.06790123456790124,0,0,0.06790123456790124,40.53703703703704,0)" xlink:href="#bv"/><use transform="matrix(0.06790123456790124,0,0,0.06790123456790124,55.40740740740742,0)" xlink:href="#al"/><use transform="matrix(0.06790123456790124,0,0,0.06790123456790124,68.98765432098766,0)" xlink:href="#ap"/><use transform="matrix(0.06790123456790124,0,0,0.06790123456790124,83.85802469135803,0)" xlink:href="#aL"/><use transform="matrix(0.06790123456790124,0,0,0.06790123456790124,91.93827160493828,0)" xlink:href="#aj"/><use transform="matrix(0.06790123456790124,0,0,0.06790123456790124,98.7283950617284,0)" xlink:href="#bw"/><use transform="matrix(0.06790123456790124,0,0,0.06790123456790124,112.30864197530866,0)" xlink:href="#bx"/><use transform="matrix(0.06790123456790124,0,0,0.06790123456790124,125.88888888888891,0)" xlink:href="#aL"/><use transform="matrix(0.06790123456790124,0,0,0.06790123456790124,133.96913580246917,0)" xlink:href="#aj"/><use transform="matrix(0.06790123456790124,0,0,0.06790123456790124,140.75925925925927,0)" xlink:href="#aO"/><use transform="matrix(0.06790123456790124,0,0,0.06790123456790124,155.62962962962968,0)" xlink:href="#ap"/></g><path d="M76-208v77h127v40H76V0H24v-248h183v40H76" id="by"/><path d="M25 0v-261h50V0H25" id="bz"/><path d="M231 0h-52l-39-155L100 0H48L-1-190h46L77-45c9-52 24-97 36-145h53l37 145 32-145h46" id="bA"/><g id="ah"><use transform="matrix(0.06790123456790124,0,0,0.06790123456790124,0,0)" xlink:href="#by"/><use transform="matrix(0.06790123456790124,0,0,0.06790123456790124,14.870370370370372,0)" xlink:href="#bz"/><use transform="matrix(0.06790123456790124,0,0,0.06790123456790124,21.660493827160497,0)" xlink:href="#aO"/><use transform="matrix(0.06790123456790124,0,0,0.06790123456790124,36.53086419753087,0)" xlink:href="#bA"/></g></defs></g></svg>